<svg width="32" height="32" viewBox="0 0 32 32" fill="none" xmlns="http://www.w3.org/2000/svg">
<g clip-path="url(#clip0_30_170)">
<path d="M28 0C29.0609 0 30.0783 0.421427 30.8284 1.17157C31.5786 1.92172 32 2.93913 32 4V28C32 29.0609 31.5786 30.0783 30.8284 30.8284C30.0783 31.5786 29.0609 32 28 32H4C2.93913 32 1.92172 31.5786 1.17157 30.8284C0.421427 30.0783 0 29.0609 0 28V4C0 2.93913 0.421427 1.92172 1.17157 1.17157C1.92172 0.421427 2.93913 0 4 0L28 0ZM11.808 21.606L20 13.414V18.95C20 19.2152 20.1054 19.4696 20.2929 19.6571C20.4804 19.8446 20.7348 19.95 21 19.95C21.2652 19.95 21.5196 19.8446 21.7071 19.6571C21.8946 19.4696 22 19.2152 22 18.95V11C22 10.7348 21.8946 10.4804 21.7071 10.2929C21.5196 10.1054 21.2652 10 21 10H13.05C12.7848 10 12.5304 10.1054 12.3429 10.2929C12.1554 10.4804 12.05 10.7348 12.05 11C12.05 11.2652 12.1554 11.5196 12.3429 11.7071C12.5304 11.8946 12.7848 12 13.05 12H18.586L10.394 20.192C10.2118 20.3806 10.111 20.6332 10.1133 20.8954C10.1156 21.1576 10.2208 21.4084 10.4062 21.5938C10.5916 21.7792 10.8424 21.8844 11.1046 21.8867C11.3668 21.889 11.6194 21.7882 11.808 21.606Z" fill="#0A9DE2"/>
</g>
<defs>
<clipPath id="clip0_30_170">
<rect width="32" height="32" fill="white"/>
</clipPath>
</defs>
</svg>
