<svg width="84" height="80" viewBox="0 0 84 80" fill="none" xmlns="http://www.w3.org/2000/svg">
<path d="M0.0983887 40C0.0983887 17.9086 18.007 0 40.0984 0H43.14C65.2314 0 83.14 17.9086 83.14 40C83.14 62.0914 65.2314 80 43.14 80H40.0984C18.007 80 0.0983887 62.0914 0.0983887 40Z" fill="#E2F2FF"/>
<path d="M41.6191 24.25C43.2767 24.25 44.8665 24.8426 46.0386 25.8975C47.2107 26.9524 47.8691 28.3832 47.8691 29.875V31H35.3691V29.875C35.3691 28.3832 36.0276 26.9524 37.1997 25.8975C38.3718 24.8426 39.9615 24.25 41.6191 24.25ZM50.3691 31V29.875C50.3691 27.7864 49.4473 25.7834 47.8063 24.3065C46.1654 22.8297 43.9398 22 41.6191 22C39.2985 22 37.0729 22.8297 35.432 24.3065C33.791 25.7834 32.8691 27.7864 32.8691 29.875V31H24.1191V53.5C24.1191 54.6935 24.6459 55.8381 25.5836 56.682C26.5213 57.5259 27.7931 58 29.1191 58H54.1191C55.4452 58 56.717 57.5259 57.6547 56.682C58.5924 55.8381 59.1191 54.6935 59.1191 53.5V31H50.3691ZM26.6191 33.25H56.6191V53.5C56.6191 54.0967 56.3557 54.669 55.8869 55.091C55.4181 55.5129 54.7822 55.75 54.1191 55.75H29.1191C28.4561 55.75 27.8202 55.5129 27.3514 55.091C26.8825 54.669 26.6191 54.0967 26.6191 53.5V33.25Z" fill="#0C4B6E"/>
</svg>
