<svg width="84" height="80" viewBox="0 0 84 80" fill="none" xmlns="http://www.w3.org/2000/svg">
<path d="M0.633301 40C0.633301 17.9086 18.5419 0 40.6333 0H43.6749C65.7663 0 83.6749 17.9086 83.6749 40C83.6749 62.0914 65.7663 80 43.6749 80H40.6333C18.5419 80 0.633301 62.0914 0.633301 40Z" fill="#E2F2FF"/>
<path d="M27.1541 25.0002C27.1541 23.6742 27.6808 22.4024 28.6185 21.4647C29.5562 20.527 30.828 20.0002 32.1541 20.0002H52.1541C53.4801 20.0002 54.7519 20.527 55.6896 21.4647C56.6273 22.4024 57.1541 23.6742 57.1541 25.0002V58.7502C57.1539 58.9763 57.0925 59.1982 56.9763 59.3921C56.86 59.5861 56.6934 59.7449 56.4941 59.8516C56.2947 59.9583 56.0702 60.009 55.8443 59.9982C55.6185 59.9874 55.3998 59.9155 55.2116 59.7902L42.1541 52.7527L29.0966 59.7902C28.9083 59.9155 28.6896 59.9874 28.4638 59.9982C28.2379 60.009 28.0134 59.9583 27.8141 59.8516C27.6147 59.7449 27.4481 59.5861 27.3318 59.3921C27.2156 59.1982 27.1542 58.9763 27.1541 58.7502V25.0002ZM32.1541 22.5002C31.491 22.5002 30.8551 22.7636 30.3863 23.2325C29.9174 23.7013 29.6541 24.3372 29.6541 25.0002V56.4152L41.4616 50.2102C41.6667 50.0737 41.9076 50.0009 42.1541 50.0009C42.4005 50.0009 42.6414 50.0737 42.8466 50.2102L54.6541 56.4152V25.0002C54.6541 24.3372 54.3907 23.7013 53.9218 23.2325C53.453 22.7636 52.8171 22.5002 52.1541 22.5002H32.1541Z" fill="#0C4B6E"/>
</svg>
