<svg width="25" height="24" viewBox="0 0 25 24" fill="none" xmlns="http://www.w3.org/2000/svg">
<path d="M6.5 3.75C6.5 3.55109 6.57902 3.36032 6.71967 3.21967C6.86032 3.07902 7.05109 3 7.25 3H8.75C8.94891 3 9.13968 3.07902 9.28033 3.21967C9.42098 3.36032 9.5 3.55109 9.5 3.75V5.25C9.5 5.44891 9.42098 5.63968 9.28033 5.78033C9.13968 5.92098 8.94891 6 8.75 6H7.25C7.05109 6 6.86032 5.92098 6.71967 5.78033C6.57902 5.63968 6.5 5.44891 6.5 5.25V3.75ZM11 3.75C11 3.55109 11.079 3.36032 11.2197 3.21967C11.3603 3.07902 11.5511 3 11.75 3H13.25C13.4489 3 13.6397 3.07902 13.7803 3.21967C13.921 3.36032 14 3.55109 14 3.75V5.25C14 5.44891 13.921 5.63968 13.7803 5.78033C13.6397 5.92098 13.4489 6 13.25 6H11.75C11.5511 6 11.3603 5.92098 11.2197 5.78033C11.079 5.63968 11 5.44891 11 5.25V3.75ZM16.25 3C16.0511 3 15.8603 3.07902 15.7197 3.21967C15.579 3.36032 15.5 3.55109 15.5 3.75V5.25C15.5 5.44891 15.579 5.63968 15.7197 5.78033C15.8603 5.92098 16.0511 6 16.25 6H17.75C17.9489 6 18.1397 5.92098 18.2803 5.78033C18.421 5.63968 18.5 5.44891 18.5 5.25V3.75C18.5 3.55109 18.421 3.36032 18.2803 3.21967C18.1397 3.07902 17.9489 3 17.75 3H16.25ZM6.5 8.25C6.5 8.05109 6.57902 7.86032 6.71967 7.71967C6.86032 7.57902 7.05109 7.5 7.25 7.5H8.75C8.94891 7.5 9.13968 7.57902 9.28033 7.71967C9.42098 7.86032 9.5 8.05109 9.5 8.25V9.75C9.5 9.94891 9.42098 10.1397 9.28033 10.2803C9.13968 10.421 8.94891 10.5 8.75 10.5H7.25C7.05109 10.5 6.86032 10.421 6.71967 10.2803C6.57902 10.1397 6.5 9.94891 6.5 9.75V8.25ZM11.75 7.5C11.5511 7.5 11.3603 7.57902 11.2197 7.71967C11.079 7.86032 11 8.05109 11 8.25V9.75C11 9.94891 11.079 10.1397 11.2197 10.2803C11.3603 10.421 11.5511 10.5 11.75 10.5H13.25C13.4489 10.5 13.6397 10.421 13.7803 10.2803C13.921 10.1397 14 9.94891 14 9.75V8.25C14 8.05109 13.921 7.86032 13.7803 7.71967C13.6397 7.57902 13.4489 7.5 13.25 7.5H11.75ZM15.5 8.25C15.5 8.05109 15.579 7.86032 15.7197 7.71967C15.8603 7.57902 16.0511 7.5 16.25 7.5H17.75C17.9489 7.5 18.1397 7.57902 18.2803 7.71967C18.421 7.86032 18.5 8.05109 18.5 8.25V9.75C18.5 9.94891 18.421 10.1397 18.2803 10.2803C18.1397 10.421 17.9489 10.5 17.75 10.5H16.25C16.0511 10.5 15.8603 10.421 15.7197 10.2803C15.579 10.1397 15.5 9.94891 15.5 9.75V8.25ZM7.25 12C7.05109 12 6.86032 12.079 6.71967 12.2197C6.57902 12.3603 6.5 12.5511 6.5 12.75V14.25C6.5 14.4489 6.57902 14.6397 6.71967 14.7803C6.86032 14.921 7.05109 15 7.25 15H8.75C8.94891 15 9.13968 14.921 9.28033 14.7803C9.42098 14.6397 9.5 14.4489 9.5 14.25V12.75C9.5 12.5511 9.42098 12.3603 9.28033 12.2197C9.13968 12.079 8.94891 12 8.75 12H7.25ZM11 12.75C11 12.5511 11.079 12.3603 11.2197 12.2197C11.3603 12.079 11.5511 12 11.75 12H13.25C13.4489 12 13.6397 12.079 13.7803 12.2197C13.921 12.3603 14 12.5511 14 12.75V14.25C14 14.4489 13.921 14.6397 13.7803 14.7803C13.6397 14.921 13.4489 15 13.25 15H11.75C11.5511 15 11.3603 14.921 11.2197 14.7803C11.079 14.6397 11 14.4489 11 14.25V12.75ZM16.25 12C16.0511 12 15.8603 12.079 15.7197 12.2197C15.579 12.3603 15.5 12.5511 15.5 12.75V14.25C15.5 14.4489 15.579 14.6397 15.7197 14.7803C15.8603 14.921 16.0511 15 16.25 15H17.75C17.9489 15 18.1397 14.921 18.2803 14.7803C18.421 14.6397 18.5 14.4489 18.5 14.25V12.75C18.5 12.5511 18.421 12.3603 18.2803 12.2197C18.1397 12.079 17.9489 12 17.75 12H16.25Z" fill="#0C4B6E"/>
<path d="M3.5 1.5C3.5 1.10218 3.65804 0.720644 3.93934 0.43934C4.22064 0.158035 4.60218 0 5 0L20 0C20.3978 0 20.7794 0.158035 21.0607 0.43934C21.342 0.720644 21.5 1.10218 21.5 1.5V22.5C21.5 22.8978 21.342 23.2794 21.0607 23.5607C20.7794 23.842 20.3978 24 20 24H5C4.60218 24 4.22064 23.842 3.93934 23.5607C3.65804 23.2794 3.5 22.8978 3.5 22.5V1.5ZM20 1.5H5V22.5H9.5V18.75C9.5 18.5511 9.57902 18.3603 9.71967 18.2197C9.86032 18.079 10.0511 18 10.25 18H14.75C14.9489 18 15.1397 18.079 15.2803 18.2197C15.421 18.3603 15.5 18.5511 15.5 18.75V22.5H20V1.5Z" fill="#0C4B6E"/>
</svg>
