<svg width="19" height="24" viewBox="0 0 19 24" fill="none" xmlns="http://www.w3.org/2000/svg">
<path d="M0.5 1.5C0.5 1.10218 0.658035 0.720644 0.93934 0.43934C1.22064 0.158035 1.60218 0 2 0L17 0C17.3978 0 17.7794 0.158035 18.0607 0.43934C18.342 0.720644 18.5 1.10218 18.5 1.5V22.5C18.5 22.8978 18.342 23.2794 18.0607 23.5607C17.7794 23.842 17.3978 24 17 24H2C1.60218 24 1.22064 23.842 0.93934 23.5607C0.658035 23.2794 0.5 22.8978 0.5 22.5V1.5ZM17 1.5H2V22.5H6.5V18.75C6.5 18.5511 6.57902 18.3603 6.71967 18.2197C6.86032 18.079 7.05109 18 7.25 18H11.75C11.9489 18 12.1397 18.079 12.2803 18.2197C12.421 18.3603 12.5 18.5511 12.5 18.75V22.5H17V1.5Z" fill="white"/>
</svg>
