<svg width="34" height="32" viewBox="0 0 34 32" fill="none" xmlns="http://www.w3.org/2000/svg">
<g clip-path="url(#clip0_333_517)">
<path d="M33.7203 16C33.7203 20.2435 31.973 24.3131 28.8628 27.3137C25.7525 30.3143 21.5341 32 17.1356 32C12.737 32 8.5186 30.3143 5.40835 27.3137C2.2981 24.3131 0.550781 20.2435 0.550781 16C0.550781 11.7565 2.2981 7.68687 5.40835 4.68629C8.5186 1.68571 12.737 0 17.1356 0C21.5341 0 25.7525 1.68571 28.8628 4.68629C31.973 7.68687 33.7203 11.7565 33.7203 16ZM25.4901 9.94C25.3421 9.79764 25.1657 9.68555 24.9717 9.61043C24.7777 9.53531 24.57 9.49872 24.361 9.50282C24.152 9.50693 23.946 9.55166 23.7553 9.63434C23.5646 9.71701 23.3931 9.83594 23.2512 9.984L16.0513 18.834L11.7123 14.646C11.4176 14.381 11.0278 14.2368 10.625 14.2437C10.2221 14.2505 9.83782 14.4079 9.55295 14.6828C9.26808 14.9576 9.10491 15.3284 9.0978 15.717C9.09069 16.1056 9.24021 16.4817 9.51485 16.766L15.0003 22.06C15.148 22.2023 15.324 22.3144 15.5177 22.3897C15.7113 22.465 15.9187 22.5018 16.1275 22.4981C16.3363 22.4944 16.5421 22.4501 16.7327 22.368C16.9234 22.2858 17.0949 22.1675 17.2371 22.02L25.5129 12.04C25.7951 11.757 25.9509 11.3786 25.9471 10.9859C25.9432 10.5933 25.7799 10.2178 25.4922 9.94H25.4901Z" fill="#0C4B6E"/>
</g>
<defs>
<clipPath id="clip0_333_517">
<rect width="33.1696" height="32" fill="white" transform="translate(0.550781)"/>
</clipPath>
</defs>
</svg>
