<svg width="60" height="60" viewBox="0 0 60 60" fill="none" xmlns="http://www.w3.org/2000/svg">
<path d="M39.2924 6.17623C39.3648 5.94084 39.3901 5.69349 39.3669 5.44831C39.3437 5.20313 39.2725 4.96492 39.1572 4.74729C39.042 4.52965 38.885 4.33684 38.6952 4.17988C38.5054 4.02292 38.2866 3.90487 38.0512 3.83248C37.8158 3.76009 37.5684 3.73477 37.3233 3.75797C37.0781 3.78118 36.8399 3.85244 36.6222 3.9677C36.4046 4.08296 36.2118 4.23996 36.0548 4.42973C35.8979 4.61951 35.7798 4.83834 35.7074 5.07373L20.7074 53.8237C20.5612 54.2991 20.6099 54.8131 20.8427 55.2527C21.0754 55.6922 21.4733 56.0213 21.9487 56.1675C22.4241 56.3137 22.9381 56.265 23.3776 56.0323C23.8172 55.7995 24.1462 55.4016 24.2924 54.9262L39.2924 6.17623ZM18.2024 15.5475C18.377 15.7217 18.5156 15.9286 18.6101 16.1564C18.7046 16.3842 18.7533 16.6284 18.7533 16.875C18.7533 17.1216 18.7046 17.3658 18.6101 17.5936C18.5156 17.8214 18.377 18.0283 18.2024 18.2025L6.40118 30L18.2024 41.7975C18.5545 42.1496 18.7523 42.6271 18.7523 43.125C18.7523 43.6229 18.5545 44.1004 18.2024 44.4525C17.8504 44.8046 17.3728 45.0023 16.8749 45.0023C16.377 45.0024 15.8995 44.8046 15.5474 44.4525L2.42243 31.3275C2.24782 31.1533 2.10929 30.9464 2.01476 30.7186C1.92024 30.4908 1.87158 30.2466 1.87158 30C1.87158 29.7534 1.92024 29.5091 2.01476 29.2814C2.10929 29.0536 2.24782 28.8467 2.42243 28.6725L15.5474 15.5475C15.7216 15.3729 15.9285 15.2343 16.1563 15.1398C16.3841 15.0453 16.6283 14.9966 16.8749 14.9966C17.1216 14.9966 17.3658 15.0453 17.5936 15.1398C17.8214 15.2343 18.0283 15.3729 18.2024 15.5475ZM41.7974 15.5475C41.6228 15.7217 41.4843 15.9286 41.3898 16.1564C41.2952 16.3842 41.2466 16.6284 41.2466 16.875C41.2466 17.1216 41.2952 17.3658 41.3898 17.5936C41.4843 17.8214 41.6228 18.0283 41.7974 18.2025L53.5987 30L41.7974 41.7975C41.6231 41.9718 41.4848 42.1788 41.3905 42.4065C41.2961 42.6343 41.2476 42.8784 41.2476 43.125C41.2476 43.3715 41.2961 43.6157 41.3905 43.8434C41.4848 44.0712 41.6231 44.2782 41.7974 44.4525C41.9718 44.6268 42.1787 44.7651 42.4065 44.8594C42.6343 44.9538 42.8784 45.0023 43.1249 45.0023C43.3715 45.0024 43.6156 44.9538 43.8434 44.8594C44.0711 44.7651 44.2781 44.6268 44.4524 44.4525L57.5774 31.3275C57.752 31.1533 57.8906 30.9464 57.9851 30.7186C58.0796 30.4908 58.1283 30.2466 58.1283 30C58.1283 29.7534 58.0796 29.5091 57.9851 29.2814C57.8906 29.0536 57.752 28.8467 57.5774 28.6725L44.4524 15.5475C44.2783 15.3729 44.0714 15.2343 43.8436 15.1398C43.6158 15.0453 43.3716 14.9966 43.1249 14.9966C42.8783 14.9966 42.6341 15.0453 42.4063 15.1398C42.1785 15.2343 41.9716 15.3729 41.7974 15.5475Z" fill="#0A9DE2"/>
</svg>
