<svg width="60" height="60" viewBox="0 0 60 60" fill="none" xmlns="http://www.w3.org/2000/svg">
<g clip-path="url(#clip0_9_162)">
<path d="M20.7001 1.34625C20.8144 0.957483 21.0515 0.616195 21.376 0.3735C21.7005 0.130805 22.0949 -0.000236949 22.5001 3.21644e-07H37.5001C37.7971 0.000225726 38.0897 0.0709725 38.354 0.206416C38.6182 0.341861 38.8465 0.538128 39.0201 0.779063C39.1936 1.02 39.3075 1.29871 39.3523 1.59225C39.397 1.8858 39.3715 2.18578 39.2776 2.4675L32.6026 22.5H46.8751C47.2262 22.4998 47.5704 22.5981 47.8684 22.7839C48.1663 22.9696 48.4061 23.2353 48.5605 23.5507C48.7149 23.8661 48.7776 24.2185 48.7415 24.5677C48.7054 24.917 48.572 25.2491 48.3564 25.5263L22.1064 59.2763C21.8375 59.6237 21.4551 59.8656 21.026 59.9599C20.5969 60.0542 20.1483 59.9948 19.7586 59.7921C19.3688 59.5894 19.0626 59.2562 18.8933 58.8508C18.7241 58.4454 18.7026 57.9934 18.8326 57.5738L25.5864 35.625H13.1251C12.8336 35.6252 12.5461 35.5574 12.2854 35.427C12.0246 35.2966 11.7979 35.1072 11.6232 34.8739C11.4485 34.6405 11.3305 34.3697 11.2788 34.0828C11.2271 33.7959 11.2429 33.5009 11.3251 33.2213L20.7001 1.34625ZM23.9026 3.75L15.6301 31.875H28.1251C28.4186 31.8749 28.7079 31.9438 28.9699 32.0759C29.2319 32.208 29.4592 32.3998 29.6336 32.6358C29.8079 32.8719 29.9245 33.1455 29.9738 33.4347C30.0231 33.724 30.0039 34.0208 29.9176 34.3013L25.4251 48.9L43.0426 26.25H30.0001C29.7032 26.2498 29.4105 26.179 29.1463 26.0436C28.882 25.9081 28.6537 25.7119 28.4802 25.4709C28.3066 25.23 28.1928 24.9513 28.148 24.6577C28.1032 24.3642 28.1288 24.0642 28.2226 23.7825L34.8976 3.75H23.9026Z" fill="#0A9DE2"/>
</g>
<defs>
<clipPath id="clip0_9_162">
<rect width="60" height="60" fill="white"/>
</clipPath>
</defs>
</svg>
