<svg width="21" height="20" viewBox="0 0 21 20" fill="none" xmlns="http://www.w3.org/2000/svg">
<g clip-path="url(#clip0_289_162)">
<path d="M20.5001 10.0613C20.5001 4.50378 16.0226 -0.0012207 10.5001 -0.0012207C4.97506 2.92971e-05 0.497559 4.50378 0.497559 10.0625C0.497559 15.0838 4.15506 19.2463 8.93506 20.0013V12.97H6.39756V10.0625H8.93756V7.84378C8.93756 5.32253 10.4313 3.93003 12.7151 3.93003C13.8101 3.93003 14.9538 4.12628 14.9538 4.12628V6.60128H13.6926C12.4513 6.60128 12.0638 7.37753 12.0638 8.17378V10.0613H14.8363L14.3938 12.9688H12.0626V20C16.8426 19.245 20.5001 15.0825 20.5001 10.0613Z" fill="#868686"/>
</g>
<defs>
<clipPath id="clip0_289_162">
<rect width="20" height="20" fill="white" transform="translate(0.5)"/>
</clipPath>
</defs>
</svg>
