<svg width="60" height="60" viewBox="0 0 60 60" fill="none" xmlns="http://www.w3.org/2000/svg">
<path d="M52.5 11.25C53.4946 11.25 54.4484 11.6451 55.1516 12.3483C55.8549 13.0516 56.25 14.0054 56.25 15V45C56.25 45.9946 55.8549 46.9484 55.1516 47.6516C54.4484 48.3549 53.4946 48.75 52.5 48.75H7.5C6.50544 48.75 5.55161 48.3549 4.84835 47.6516C4.14509 46.9484 3.75 45.9946 3.75 45V15C3.75 14.0054 4.14509 13.0516 4.84835 12.3483C5.55161 11.6451 6.50544 11.25 7.5 11.25H52.5ZM7.5 7.5C5.51088 7.5 3.60322 8.29018 2.1967 9.6967C0.790176 11.1032 0 13.0109 0 15L0 45C0 46.9891 0.790176 48.8968 2.1967 50.3033C3.60322 51.7098 5.51088 52.5 7.5 52.5H52.5C54.4891 52.5 56.3968 51.7098 57.8033 50.3033C59.2098 48.8968 60 46.9891 60 45V15C60 13.0109 59.2098 11.1032 57.8033 9.6967C56.3968 8.29018 54.4891 7.5 52.5 7.5H7.5Z" fill="#0A9DE2"/>
<path d="M7.5 20.625C7.5 20.1277 7.69754 19.6508 8.04918 19.2992C8.40081 18.9475 8.87772 18.75 9.375 18.75H16.875C17.3723 18.75 17.8492 18.9475 18.2008 19.2992C18.5525 19.6508 18.75 20.1277 18.75 20.625V24.375C18.75 24.8723 18.5525 25.3492 18.2008 25.7008C17.8492 26.0525 17.3723 26.25 16.875 26.25H9.375C8.87772 26.25 8.40081 26.0525 8.04918 25.7008C7.69754 25.3492 7.5 24.8723 7.5 24.375V20.625ZM7.5 31.875C7.5 31.3777 7.69754 30.9008 8.04918 30.5492C8.40081 30.1975 8.87772 30 9.375 30H28.125C28.6223 30 29.0992 30.1975 29.4508 30.5492C29.8025 30.9008 30 31.3777 30 31.875C30 32.3723 29.8025 32.8492 29.4508 33.2008C29.0992 33.5525 28.6223 33.75 28.125 33.75H9.375C8.87772 33.75 8.40081 33.5525 8.04918 33.2008C7.69754 32.8492 7.5 32.3723 7.5 31.875ZM7.5 39.375C7.5 38.8777 7.69754 38.4008 8.04918 38.0492C8.40081 37.6975 8.87772 37.5 9.375 37.5H13.125C13.6223 37.5 14.0992 37.6975 14.4508 38.0492C14.8025 38.4008 15 38.8777 15 39.375C15 39.8723 14.8025 40.3492 14.4508 40.7008C14.0992 41.0525 13.6223 41.25 13.125 41.25H9.375C8.87772 41.25 8.40081 41.0525 8.04918 40.7008C7.69754 40.3492 7.5 39.8723 7.5 39.375ZM18.75 39.375C18.75 38.8777 18.9475 38.4008 19.2992 38.0492C19.6508 37.6975 20.1277 37.5 20.625 37.5H24.375C24.8723 37.5 25.3492 37.6975 25.7008 38.0492C26.0525 38.4008 26.25 38.8777 26.25 39.375C26.25 39.8723 26.0525 40.3492 25.7008 40.7008C25.3492 41.0525 24.8723 41.25 24.375 41.25H20.625C20.1277 41.25 19.6508 41.0525 19.2992 40.7008C18.9475 40.3492 18.75 39.8723 18.75 39.375ZM30 39.375C30 38.8777 30.1975 38.4008 30.5492 38.0492C30.9008 37.6975 31.3777 37.5 31.875 37.5H35.625C36.1223 37.5 36.5992 37.6975 36.9508 38.0492C37.3025 38.4008 37.5 38.8777 37.5 39.375C37.5 39.8723 37.3025 40.3492 36.9508 40.7008C36.5992 41.0525 36.1223 41.25 35.625 41.25H31.875C31.3777 41.25 30.9008 41.0525 30.5492 40.7008C30.1975 40.3492 30 39.8723 30 39.375ZM41.25 39.375C41.25 38.8777 41.4475 38.4008 41.7992 38.0492C42.1508 37.6975 42.6277 37.5 43.125 37.5H46.875C47.3723 37.5 47.8492 37.6975 48.2008 38.0492C48.5525 38.4008 48.75 38.8777 48.75 39.375C48.75 39.8723 48.5525 40.3492 48.2008 40.7008C47.8492 41.0525 47.3723 41.25 46.875 41.25H43.125C42.6277 41.25 42.1508 41.0525 41.7992 40.7008C41.4475 40.3492 41.25 39.8723 41.25 39.375Z" fill="#0A9DE2"/>
</svg>
