<svg width="60" height="60" viewBox="0 0 60 60" fill="none" xmlns="http://www.w3.org/2000/svg">
<g clip-path="url(#clip0_9_196)">
<path d="M29.9999 17.8275C28.4014 17.8275 26.8185 18.1424 25.3417 18.7541C23.8648 19.3658 22.523 20.2624 21.3926 21.3928C20.2623 22.5231 19.3657 23.865 18.754 25.3418C18.1422 26.8186 17.8274 28.4015 17.8274 30C17.8274 31.5985 18.1422 33.1814 18.754 34.6582C19.3657 36.1351 20.2623 37.477 21.3926 38.6073C22.523 39.7376 23.8648 40.6342 25.3417 41.2459C26.8185 41.8577 28.4014 42.1725 29.9999 42.1725C33.2282 42.1725 36.3244 40.8901 38.6072 38.6073C40.8899 36.3245 42.1724 33.2284 42.1724 30C42.1724 26.7717 40.8899 23.6755 38.6072 21.3928C36.3244 19.11 33.2282 17.8275 29.9999 17.8275ZM21.5774 30C21.5774 27.7662 22.4648 25.6239 24.0443 24.0444C25.6238 22.4649 27.7661 21.5775 29.9999 21.5775C32.2337 21.5775 34.376 22.4649 35.9555 24.0444C37.535 25.6239 38.4224 27.7662 38.4224 30C38.4224 32.2338 37.535 34.3761 35.9555 35.9556C34.376 37.5351 32.2337 38.4225 29.9999 38.4225C27.7661 38.4225 25.6238 37.5351 24.0443 35.9556C22.4648 34.3761 21.5774 32.2338 21.5774 30Z" fill="#0A9DE2"/>
<path d="M36.7351 5.03633C34.7588 -1.67617 25.2413 -1.67617 23.2651 5.03633L22.9126 6.23258C22.7746 6.70115 22.5334 7.1329 22.2069 7.49617C21.8803 7.85945 21.4766 8.14504 21.0254 8.33202C20.5741 8.519 20.0867 8.60263 19.5989 8.57677C19.1111 8.55091 18.6353 8.41622 18.2063 8.18258L17.1113 7.58258C10.9613 4.23758 4.23758 10.9651 7.58633 17.1113L8.18258 18.2063C8.41622 18.6353 8.55091 19.1111 8.57677 19.5989C8.60263 20.0867 8.519 20.5741 8.33202 21.0254C8.14504 21.4766 7.85945 21.8803 7.49617 22.2069C7.1329 22.5334 6.70115 22.7746 6.23258 22.9126L5.03633 23.2651C-1.67617 25.2413 -1.67617 34.7588 5.03633 36.7351L6.23258 37.0876C6.70115 37.2256 7.1329 37.4667 7.49617 37.7933C7.85945 38.1198 8.14504 38.5235 8.33202 38.9748C8.519 39.4261 8.60263 39.9135 8.57677 40.4012C8.55091 40.889 8.41622 41.3649 8.18258 41.7938L7.58258 42.8888C4.23758 49.0388 10.9613 55.7663 17.1113 52.4138L18.2063 51.8176C18.6353 51.5839 19.1111 51.4492 19.5989 51.4234C20.0867 51.3975 20.5741 51.4812 21.0254 51.6681C21.4766 51.8551 21.8803 52.1407 22.2069 52.504C22.5334 52.8673 22.7746 53.299 22.9126 53.7676L23.2651 54.9638C25.2413 61.6763 34.7588 61.6763 36.7351 54.9638L37.0876 53.7676C37.2256 53.299 37.4667 52.8673 37.7933 52.504C38.1198 52.1407 38.5235 51.8551 38.9748 51.6681C39.4261 51.4812 39.9135 51.3975 40.4012 51.4234C40.889 51.4492 41.3649 51.5839 41.7938 51.8176L42.8888 52.4176C49.0388 55.7663 55.7663 49.0351 52.4138 42.8888L51.8176 41.7938C51.5839 41.3649 51.4492 40.889 51.4234 40.4012C51.3975 39.9135 51.4812 39.4261 51.6681 38.9748C51.8551 38.5235 52.1407 38.1198 52.504 37.7933C52.8673 37.4667 53.299 37.2256 53.7676 37.0876L54.9638 36.7351C61.6763 34.7588 61.6763 25.2413 54.9638 23.2651L53.7676 22.9126C53.299 22.7746 52.8673 22.5334 52.504 22.2069C52.1407 21.8803 51.8551 21.4766 51.6681 21.0254C51.4812 20.5741 51.3975 20.0867 51.4234 19.5989C51.4492 19.1111 51.5839 18.6353 51.8176 18.2063L52.4176 17.1113C55.7663 10.9613 49.0351 4.23758 42.8888 7.58633L41.7938 8.18258C41.3649 8.41622 40.889 8.55091 40.4012 8.57677C39.9135 8.60263 39.4261 8.519 38.9748 8.33202C38.5235 8.14504 38.1198 7.85945 37.7933 7.49617C37.4667 7.1329 37.2256 6.70115 37.0876 6.23258L36.7351 5.03633ZM26.8613 6.09758C27.7838 2.96633 32.2163 2.96633 33.1388 6.09758L33.4913 7.29383C33.7877 8.29915 34.3052 9.22541 35.0061 10.0047C35.7069 10.784 36.5732 11.3966 37.5416 11.7975C38.51 12.1984 39.5558 12.3776 40.6024 12.3218C41.649 12.266 42.6698 11.9767 43.5901 11.4751L44.6813 10.8751C47.5463 9.31883 50.6813 12.4501 49.1213 15.3188L48.5251 16.4138C48.0242 17.3342 47.7356 18.3549 47.6804 19.4013C47.6252 20.4476 47.8049 21.4931 48.2061 22.461C48.6074 23.4289 49.2201 24.2948 49.9995 24.9952C50.7788 25.6956 51.705 26.2128 52.7101 26.5088L53.9026 26.8613C57.0338 27.7838 57.0338 32.2163 53.9026 33.1388L52.7063 33.4913C51.701 33.7877 50.7747 34.3052 49.9955 35.0061C49.2162 35.7069 48.6036 36.5732 48.2027 37.5416C47.8017 38.51 47.6226 39.5558 47.6784 40.6024C47.7342 41.649 48.0235 42.6698 48.5251 43.5901L49.1251 44.6813C50.6813 47.5463 47.5501 50.6813 44.6813 49.1213L43.5901 48.5251C42.6696 48.0235 41.6485 47.7344 40.6017 47.6788C39.5549 47.6232 38.5089 47.8027 37.5405 48.204C36.5721 48.6053 35.7058 49.2183 35.0051 49.9981C34.3045 50.7778 33.7872 51.7044 33.4913 52.7101L33.1388 53.9026C32.2163 57.0338 27.7838 57.0338 26.8613 53.9026L26.5088 52.7063C26.2124 51.7015 25.6949 50.7758 24.9943 49.9969C24.2937 49.218 23.4278 48.6057 22.4599 48.2048C21.492 47.8039 20.4467 47.6246 19.4006 47.68C18.3544 47.7354 17.3339 48.0242 16.4138 48.5251L15.3188 49.1251C12.4538 50.6813 9.31883 47.5501 10.8788 44.6813L11.4751 43.5901C11.9774 42.6697 12.2673 41.6485 12.3234 40.6015C12.3796 39.5544 12.2006 38.5081 11.7996 37.5392C11.3986 36.5704 10.7858 35.7036 10.0061 35.0025C9.22644 34.3014 8.29967 33.7838 7.29383 33.4876L6.09758 33.1351C2.96633 32.2126 2.96633 27.7801 6.09758 26.8576L7.29383 26.5051C8.2981 26.2085 9.22335 25.6911 10.0019 24.9908C10.7804 24.2905 11.3924 23.4249 11.7933 22.4575C12.1941 21.4901 12.3736 20.4454 12.3185 19.3997C12.2635 18.3539 11.9753 17.3338 11.4751 16.4138L10.8751 15.3188C9.31883 12.4538 12.4501 9.31883 15.3188 10.8788L16.4138 11.4751C17.3339 11.976 18.3544 12.2647 19.4006 12.3202C20.4467 12.3756 21.492 12.1963 22.4599 11.7954C23.4278 11.3945 24.2937 10.7822 24.9943 10.0033C25.6949 9.22438 26.2124 8.29862 26.5088 7.29383L26.8613 6.09758Z" fill="#0A9DE2"/>
</g>
<defs>
<clipPath id="clip0_9_196">
<rect width="60" height="60" fill="white"/>
</clipPath>
</defs>
</svg>
