<svg width="25" height="24" viewBox="0 0 25 24" fill="none" xmlns="http://www.w3.org/2000/svg">
<g clip-path="url(#clip0_289_175)">
<path d="M12.4998 4.12207L11.4243 3.01657C8.89984 0.421573 4.27084 1.31707 2.59984 4.57957C1.81534 6.11407 1.63834 8.32957 3.07084 11.1571C4.45084 13.8796 7.32184 17.1406 12.4998 20.6926C17.6778 17.1406 20.5473 13.8796 21.9288 11.1571C23.3613 8.32807 23.1858 6.11407 22.3998 4.57957C20.7288 1.31707 16.0998 0.420073 13.5753 3.01507L12.4998 4.12207ZM12.4998 22.5001C-10.4997 7.30207 5.41834 -4.55993 12.2358 1.71457C12.3258 1.79757 12.4138 1.88307 12.4998 1.97107C12.5843 1.88252 12.6724 1.79745 12.7638 1.71607C19.5798 -4.56293 35.4993 7.30057 12.4998 22.5001Z" fill="#0C4B6E"/>
</g>
<defs>
<clipPath id="clip0_289_175">
<rect width="24" height="24" fill="white" transform="translate(0.5)"/>
</clipPath>
</defs>
</svg>
