<svg width="21" height="20" viewBox="0 0 21 20" fill="none" xmlns="http://www.w3.org/2000/svg">
<g clip-path="url(#clip0_289_166)">
<path d="M10.5 0C7.78625 0 7.445 0.0125 6.37875 0.06C5.3125 0.11 4.58625 0.2775 3.95 0.525C3.28231 0.775407 2.67768 1.16925 2.17875 1.67875C1.66925 2.17768 1.27541 2.78231 1.025 3.45C0.7775 4.085 0.60875 4.8125 0.56 5.875C0.5125 6.94375 0.5 7.28375 0.5 10.0013C0.5 12.7163 0.5125 13.0563 0.56 14.1225C0.61 15.1875 0.7775 15.9137 1.025 16.55C1.28125 17.2075 1.6225 17.765 2.17875 18.3212C2.73375 18.8775 3.29125 19.22 3.94875 19.475C4.58625 19.7225 5.31125 19.8912 6.37625 19.94C7.44375 19.9875 7.78375 20 10.5 20C13.2163 20 13.555 19.9875 14.6225 19.94C15.6863 19.89 16.415 19.7225 17.0513 19.475C17.7185 19.2244 18.3227 18.8306 18.8212 18.3212C19.3775 17.765 19.7188 17.2075 19.975 16.55C20.2213 15.9137 20.39 15.1875 20.44 14.1225C20.4875 13.0563 20.5 12.7163 20.5 10C20.5 7.28375 20.4875 6.94375 20.44 5.87625C20.39 4.8125 20.2213 4.085 19.975 3.45C19.7246 2.78231 19.3308 2.17768 18.8212 1.67875C18.3223 1.16925 17.7177 0.775407 17.05 0.525C16.4125 0.2775 15.685 0.10875 14.6213 0.06C13.5538 0.0125 13.215 0 10.4975 0H10.5ZM9.60375 1.8025H10.5013C13.1713 1.8025 13.4875 1.81125 14.5413 1.86C15.5162 1.90375 16.0462 2.0675 16.3988 2.20375C16.865 2.385 17.1987 2.6025 17.5487 2.9525C17.8988 3.3025 18.115 3.635 18.2963 4.1025C18.4338 4.45375 18.5963 4.98375 18.64 5.95875C18.6887 7.0125 18.6987 7.32875 18.6987 9.9975C18.6987 12.6663 18.6887 12.9837 18.64 14.0375C18.5963 15.0125 18.4325 15.5413 18.2963 15.8938C18.1348 16.3274 17.8791 16.7197 17.5475 17.0425C17.1975 17.3925 16.865 17.6088 16.3975 17.79C16.0475 17.9275 15.5175 18.09 14.5413 18.135C13.4875 18.1825 13.1713 18.1938 10.5013 18.1938C7.83125 18.1938 7.51375 18.1825 6.46 18.135C5.485 18.09 4.95625 17.9275 4.60375 17.79C4.16979 17.6291 3.777 17.3738 3.45375 17.0425C3.12159 16.7195 2.86541 16.3267 2.70375 15.8925C2.5675 15.5412 2.40375 15.0113 2.36 14.0363C2.3125 12.9825 2.3025 12.6663 2.3025 9.995C2.3025 7.32375 2.3125 7.01 2.36 5.95625C2.405 4.98125 2.5675 4.45125 2.705 4.09875C2.88625 3.6325 3.10375 3.29875 3.45375 2.94875C3.80375 2.59875 4.13625 2.3825 4.60375 2.20125C4.95625 2.06375 5.485 1.90125 6.46 1.85625C7.3825 1.81375 7.74 1.80125 9.60375 1.8V1.8025ZM15.8387 3.4625C15.6812 3.4625 15.5251 3.49354 15.3795 3.55384C15.2339 3.61415 15.1017 3.70254 14.9902 3.81397C14.8788 3.9254 14.7904 4.05769 14.7301 4.20328C14.6698 4.34887 14.6388 4.50491 14.6388 4.6625C14.6388 4.82009 14.6698 4.97613 14.7301 5.12172C14.7904 5.26731 14.8788 5.3996 14.9902 5.51103C15.1017 5.62246 15.2339 5.71085 15.3795 5.77116C15.5251 5.83146 15.6812 5.8625 15.8387 5.8625C16.157 5.8625 16.4622 5.73607 16.6873 5.51103C16.9123 5.28598 17.0387 4.98076 17.0387 4.6625C17.0387 4.34424 16.9123 4.03902 16.6873 3.81397C16.4622 3.58893 16.157 3.4625 15.8387 3.4625ZM10.5013 4.865C9.82009 4.85437 9.14362 4.97936 8.51122 5.23268C7.87883 5.486 7.30314 5.86259 6.81769 6.34053C6.33223 6.81847 5.9467 7.38821 5.68355 8.01657C5.4204 8.64494 5.28488 9.31938 5.28488 10.0006C5.28488 10.6819 5.4204 11.3563 5.68355 11.9847C5.9467 12.613 6.33223 13.1828 6.81769 13.6607C7.30314 14.1387 7.87883 14.5153 8.51122 14.7686C9.14362 15.0219 9.82009 15.1469 10.5013 15.1363C11.8494 15.1152 13.1353 14.5649 14.0812 13.6041C15.0272 12.6432 15.5574 11.349 15.5574 10.0006C15.5574 8.65228 15.0272 7.35802 14.0812 6.39719C13.1353 5.43636 11.8494 4.88603 10.5013 4.865ZM10.5013 6.66625C10.939 6.66625 11.3726 6.75248 11.777 6.92002C12.1815 7.08755 12.549 7.33312 12.8586 7.64268C13.1681 7.95225 13.4137 8.31976 13.5812 8.72423C13.7488 9.1287 13.835 9.56221 13.835 10C13.835 10.4378 13.7488 10.8713 13.5812 11.2758C13.4137 11.6802 13.1681 12.0477 12.8586 12.3573C12.549 12.6669 12.1815 12.9124 11.777 13.08C11.3726 13.2475 10.939 13.3337 10.5013 13.3337C9.61709 13.3337 8.76913 12.9825 8.14393 12.3573C7.51873 11.7321 7.1675 10.8842 7.1675 10C7.1675 9.11583 7.51873 8.26788 8.14393 7.64268C8.76913 7.01748 9.61709 6.66625 10.5013 6.66625Z" fill="#868686"/>
</g>
<defs>
<clipPath id="clip0_289_166">
<rect width="20" height="20" fill="white" transform="translate(0.5)"/>
</clipPath>
</defs>
</svg>
