<svg width="21" height="20" viewBox="0 0 21 20" fill="none" xmlns="http://www.w3.org/2000/svg">
<g clip-path="url(#clip0_289_164)">
<path d="M0.5 1.4325C0.5 0.64125 1.1575 0 1.96875 0H19.0312C19.8425 0 20.5 0.64125 20.5 1.4325V18.5675C20.5 19.3587 19.8425 20 19.0312 20H1.96875C1.1575 20 0.5 19.3587 0.5 18.5675V1.4325ZM6.67875 16.7425V7.71125H3.6775V16.7425H6.67875ZM5.17875 6.4775C6.225 6.4775 6.87625 5.785 6.87625 4.9175C6.8575 4.03125 6.22625 3.3575 5.19875 3.3575C4.17125 3.3575 3.5 4.0325 3.5 4.9175C3.5 5.785 4.15125 6.4775 5.15875 6.4775H5.17875ZM11.3138 16.7425V11.6988C11.3138 11.4288 11.3337 11.1587 11.4137 10.9662C11.63 10.4275 12.1238 9.86875 12.9538 9.86875C14.04 9.86875 14.4738 10.6962 14.4738 11.9113V16.7425H17.475V11.5625C17.475 8.7875 15.995 7.4975 14.02 7.4975C12.4275 7.4975 11.7137 8.3725 11.3138 8.98875V9.02H11.2938L11.3138 8.98875V7.71125H8.31375C8.35125 8.55875 8.31375 16.7425 8.31375 16.7425H11.3138Z" fill="#868686"/>
</g>
<defs>
<clipPath id="clip0_289_164">
<rect width="20" height="20" fill="white" transform="translate(0.5)"/>
</clipPath>
</defs>
</svg>
