<svg width="60" height="60" viewBox="0 0 60 60" fill="none" xmlns="http://www.w3.org/2000/svg">
<path d="M48.75 9.375C48.75 7.88316 49.3426 6.45242 50.3975 5.39752C51.4524 4.34263 52.8832 3.75 54.375 3.75C55.8668 3.75 57.2976 4.34263 58.3525 5.39752C59.4074 6.45242 60 7.88316 60 9.375V50.625C60 52.1168 59.4074 53.5476 58.3525 54.6025C57.2976 55.6574 55.8668 56.25 54.375 56.25C52.8832 56.25 51.4524 55.6574 50.3975 54.6025C49.3426 53.5476 48.75 52.1168 48.75 50.625V49.8225C40.6425 45.1688 31.9125 42.9113 22.83 42.0112L24.3488 52.1813C24.4507 52.7231 24.432 53.2807 24.2939 53.8144C24.1558 54.3482 23.9017 54.8449 23.5497 55.2692C23.1977 55.6935 22.7565 56.035 22.2574 56.2694C21.7584 56.5037 21.2138 56.6251 20.6625 56.625H18.6075C17.8786 56.6249 17.1655 56.4124 16.5554 56.0135C15.9454 55.6146 15.4648 55.0465 15.1725 54.3787L8.235 41.2912L7.4775 41.28C5.49137 41.2603 3.59295 40.459 2.19339 39.0496C0.79384 37.6402 0.00581942 35.7362 0 33.75L0 26.25C0.00669294 24.2636 0.793387 22.3593 2.19061 20.9473C3.58784 19.5354 5.48377 18.7288 7.47 18.7013C10.5751 18.6589 13.6793 18.5651 16.7812 18.42C28.1925 17.8425 39.8363 15.2362 48.75 10.1738V9.375ZM52.5 9.375V50.625C52.5 51.1223 52.6975 51.5992 53.0492 51.9508C53.4008 52.3025 53.8777 52.5 54.375 52.5C54.8723 52.5 55.3492 52.3025 55.7008 51.9508C56.0525 51.5992 56.25 51.1223 56.25 50.625V9.375C56.25 8.87772 56.0525 8.40081 55.7008 8.04918C55.3492 7.69754 54.8723 7.5 54.375 7.5C53.8777 7.5 53.4008 7.69754 53.0492 8.04918C52.6975 8.40081 52.5 8.87772 52.5 9.375ZM48.75 14.4375C39.96 18.9563 29.2162 21.345 18.75 22.0612V37.935C19.425 37.9725 20.0963 38.0175 20.7638 38.07C30.3938 38.7788 39.8625 40.86 48.75 45.5438V14.4375ZM15 37.7437V22.2563C12.5107 22.3474 10.0206 22.4124 7.53 22.4513C6.52789 22.463 5.57043 22.8676 4.86354 23.578C4.15666 24.2884 3.75681 25.2478 3.75 26.25V33.75C3.75 35.8125 5.43 37.5075 7.5225 37.5337C10.016 37.563 12.5088 37.633 15 37.7437ZM12.5363 41.4L18.57 52.7887L18.6075 52.8787H20.6625L20.655 52.8262L18.9937 41.7038C16.8426 41.574 14.69 41.4715 12.5363 41.3962V41.4Z" fill="#0A9DE2"/>
</svg>
