<svg width="60" height="60" viewBox="0 0 60 60" fill="none" xmlns="http://www.w3.org/2000/svg">
<g clip-path="url(#clip0_9_126)">
<path d="M30 18.75C30.7387 18.75 31.4701 18.6045 32.1526 18.3218C32.8351 18.0391 33.4551 17.6248 33.9775 17.1025C34.4998 16.5801 34.9141 15.9601 35.1968 15.2776C35.4795 14.5951 35.625 13.8637 35.625 13.125C35.625 12.3863 35.4795 11.6549 35.1968 10.9724C34.9141 10.2899 34.4998 9.66985 33.9775 9.14752C33.4551 8.6252 32.8351 8.21086 32.1526 7.92818C31.4701 7.6455 30.7387 7.5 30 7.5C28.5082 7.5 27.0774 8.09263 26.0225 9.14752C24.9676 10.2024 24.375 11.6332 24.375 13.125C24.375 14.6168 24.9676 16.0476 26.0225 17.1025C27.0774 18.1574 28.5082 18.75 30 18.75ZM45 30C46.4918 30 47.9226 29.4074 48.9775 28.3525C50.0324 27.2976 50.625 25.8668 50.625 24.375C50.625 22.8832 50.0324 21.4524 48.9775 20.3975C47.9226 19.3426 46.4918 18.75 45 18.75C43.5082 18.75 42.0774 19.3426 41.0225 20.3975C39.9676 21.4524 39.375 22.8832 39.375 24.375C39.375 25.8668 39.9676 27.2976 41.0225 28.3525C42.0774 29.4074 43.5082 30 45 30ZM20.625 26.25C20.625 27.7418 20.0324 29.1726 18.9775 30.2275C17.9226 31.2824 16.4918 31.875 15 31.875C13.5082 31.875 12.0774 31.2824 11.0225 30.2275C9.96763 29.1726 9.375 27.7418 9.375 26.25C9.375 24.7582 9.96763 23.3274 11.0225 22.2725C12.0774 21.2176 13.5082 20.625 15 20.625C16.4918 20.625 17.9226 21.2176 18.9775 22.2725C20.0324 23.3274 20.625 24.7582 20.625 26.25ZM22.5 48.75C23.9918 48.75 25.4226 48.1574 26.4775 47.1025C27.5324 46.0476 28.125 44.6168 28.125 43.125C28.125 41.6332 27.5324 40.2024 26.4775 39.1475C25.4226 38.0926 23.9918 37.5 22.5 37.5C21.0082 37.5 19.5774 38.0926 18.5225 39.1475C17.4676 40.2024 16.875 41.6332 16.875 43.125C16.875 44.6168 17.4676 46.0476 18.5225 47.1025C19.5774 48.1574 21.0082 48.75 22.5 48.75Z" fill="#0A9DE2"/>
<path d="M60 30C60 41.8125 53.0025 39.6938 46.6238 37.7625C42.825 36.6113 39.2438 35.5238 37.5 37.5C35.2388 40.0613 35.7188 44.3213 36.1838 48.45C36.8475 54.3563 37.485 60 30 60C24.0666 60 18.2664 58.2405 13.3329 54.9441C8.39943 51.6477 4.55426 46.9623 2.28363 41.4805C0.0129984 35.9987 -0.581102 29.9667 0.576455 24.1473C1.73401 18.3279 4.59124 12.9824 8.78681 8.78681C12.9824 4.59124 18.3279 1.73401 24.1473 0.576455C29.9667 -0.581102 35.9987 0.0129984 41.4805 2.28363C46.9623 4.55426 51.6477 8.39943 54.9441 13.3329C58.2405 18.2664 60 24.0666 60 30ZM30 56.25C32.2913 56.25 32.4525 55.6088 32.4563 55.59C32.7488 55.0425 32.9213 53.85 32.7188 51.3938C32.6663 50.7638 32.58 50.0063 32.49 49.1775C32.295 47.4375 32.07 45.4088 32.0475 43.695C32.01 41.0438 32.3588 37.6575 34.6875 35.0175C36.0713 33.4538 37.8563 32.85 39.4575 32.7C40.9725 32.5575 42.5025 32.7975 43.8075 33.09C45.0938 33.3788 46.44 33.7875 47.6513 34.155L47.7563 34.185C49.0538 34.5788 50.2238 34.9313 51.33 35.1825C53.7788 35.7375 54.72 35.4938 55.0463 35.2725C55.1888 35.175 56.25 34.3538 56.25 30C56.25 24.8083 54.7105 19.7331 51.8261 15.4163C48.9417 11.0995 44.842 7.73498 40.0455 5.74818C35.2489 3.76138 29.9709 3.24154 24.8789 4.2544C19.7869 5.26726 15.1096 7.76733 11.4385 11.4385C7.76733 15.1096 5.26726 19.7869 4.2544 24.8789C3.24154 29.9709 3.76138 35.2489 5.74818 40.0455C7.73498 44.842 11.0995 48.9417 15.4163 51.8261C19.7331 54.7105 24.8083 56.25 30 56.25Z" fill="#0A9DE2"/>
</g>
<defs>
<clipPath id="clip0_9_126">
<rect width="60" height="60" fill="white"/>
</clipPath>
</defs>
</svg>
