<svg width="84" height="80" viewBox="0 0 84 80" fill="none" xmlns="http://www.w3.org/2000/svg">
<path d="M0.703613 40C0.703613 17.9086 18.6122 0 40.7036 0H43.7452C65.8366 0 83.7452 17.9086 83.7452 40C83.7452 62.0914 65.8366 80 43.7452 80H40.7036C18.6122 80 0.703613 62.0914 0.703613 40Z" fill="#E2F2FF"/>
<g clip-path="url(#clip0_254_1509)">
<path d="M55.9694 21.9874L56.3419 21.6149C56.6223 21.3347 56.9551 21.1125 57.3213 20.9609C57.6876 20.8093 58.0801 20.7313 58.4765 20.7314C58.8729 20.7316 59.2654 20.8098 59.6316 20.9616C59.9977 21.1133 60.3304 21.3358 60.6106 21.6162C60.8908 21.8965 61.1131 22.2293 61.2647 22.5956C61.4163 22.9619 61.4942 23.3544 61.4941 23.7508C61.494 24.1472 61.4158 24.5397 61.264 24.9058C61.1122 25.272 60.8898 25.6047 60.6094 25.8849L60.2369 26.2549C60.8741 26.9696 61.2138 27.9009 61.1864 28.858C61.159 29.8151 60.7665 30.7254 60.0894 31.4024L34.3594 57.1349C34.1985 57.2949 33.9972 57.4081 33.7769 57.4624L23.7769 59.9624C23.5676 60.0145 23.3484 60.0116 23.1406 59.9539C22.9328 59.8963 22.7435 59.7858 22.591 59.6333C22.4385 59.4808 22.328 59.2915 22.2704 59.0837C22.2127 58.8759 22.2098 58.6567 22.2619 58.4474L24.7619 48.4474C24.8166 48.228 24.9298 48.0276 25.0894 47.8674L49.1944 23.7624C48.9533 23.5927 48.66 23.5137 48.3663 23.5393C48.0726 23.565 47.7975 23.6936 47.5894 23.9024L39.3594 32.1349C39.2432 32.2511 39.1052 32.3433 38.9534 32.4062C38.8015 32.4691 38.6388 32.5015 38.4744 32.5015C38.31 32.5015 38.1473 32.4691 37.9954 32.4062C37.8436 32.3433 37.7056 32.2511 37.5894 32.1349C37.4732 32.0187 37.381 31.8807 37.3181 31.7289C37.2552 31.577 37.2228 31.4143 37.2228 31.2499C37.2228 31.0855 37.2552 30.9228 37.3181 30.7709C37.381 30.6191 37.4732 30.4811 37.5894 30.3649L45.8244 22.1349C46.5018 21.4574 47.4129 21.065 48.3705 21.038C49.3282 21.011 50.2599 21.3516 50.9744 21.9899C51.6613 21.376 52.5502 21.0364 53.4714 21.036C54.3927 21.0355 55.2819 21.3742 55.9694 21.9874ZM54.3594 23.9024C54.125 23.6681 53.8071 23.5364 53.4756 23.5364C53.1442 23.5364 52.8263 23.6681 52.5919 23.9024L27.0994 49.3899L25.1894 57.0324L32.8319 55.1224L58.3244 29.6349C58.4408 29.5188 58.5332 29.3809 58.5962 29.229C58.6592 29.0771 58.6916 28.9143 58.6916 28.7499C58.6916 28.5855 58.6592 28.4227 58.5962 28.2708C58.5332 28.119 58.4408 27.981 58.3244 27.8649L54.3594 23.9024Z" fill="#0C4B6E"/>
</g>
<defs>
<clipPath id="clip0_254_1509">
<rect width="40" height="40" fill="white" transform="translate(22.2244 20)"/>
</clipPath>
</defs>
</svg>
