<svg width="60" height="60" viewBox="0 0 60 60" fill="none" xmlns="http://www.w3.org/2000/svg">
<g clip-path="url(#clip0_9_146)">
<path d="M28.125 3.8175C23.2649 4.16578 18.5977 5.85991 14.6458 8.71024C10.6939 11.5606 7.61328 15.4546 5.74889 19.9563C3.8845 24.4581 3.3099 29.3899 4.0894 34.1998C4.8689 39.0096 6.97173 43.5075 10.1625 47.19L28.125 29.2238V3.8175ZM31.875 3.8175V28.125H56.1825C55.7314 21.8274 53.0256 15.9034 48.5611 11.4389C44.0966 6.97438 38.1726 4.26858 31.875 3.8175ZM56.1825 31.875H30.7762L12.8138 49.8375C16.4963 53.0272 20.9939 55.1291 25.8032 55.908C30.6124 56.6869 35.5435 56.112 40.0446 54.2477C44.5457 52.3835 48.4392 49.3034 51.2893 45.3521C54.1394 41.4009 55.8337 36.7344 56.1825 31.875ZM0 30C0 22.0435 3.16071 14.4129 8.7868 8.7868C14.4129 3.16071 22.0435 0 30 0C37.9565 0 45.5871 3.16071 51.2132 8.7868C56.8393 14.4129 60 22.0435 60 30C60 37.9565 56.8393 45.5871 51.2132 51.2132C45.5871 56.8393 37.9565 60 30 60C22.0435 60 14.4129 56.8393 8.7868 51.2132C3.16071 45.5871 0 37.9565 0 30Z" fill="#0A9DE2"/>
</g>
<defs>
<clipPath id="clip0_9_146">
<rect width="60" height="60" fill="white"/>
</clipPath>
</defs>
</svg>
