<svg width="84" height="80" viewBox="0 0 84 80" fill="none" xmlns="http://www.w3.org/2000/svg">
<path d="M0.168457 40C0.168457 17.9086 18.0771 0 40.1685 0H43.21C65.3014 0 83.2101 17.9086 83.2101 40C83.2101 62.0914 65.3015 80 43.2101 80H40.1685C18.0771 80 0.168457 62.0914 0.168457 40Z" fill="#E2F2FF"/>
<g clip-path="url(#clip0_254_1501)">
<path d="M59.1892 55C59.1892 55 61.6892 55 61.6892 52.5C61.6892 50 59.1892 42.5 49.1892 42.5C39.1892 42.5 36.6892 50 36.6892 52.5C36.6892 55 39.1892 55 39.1892 55H59.1892ZM39.2442 52.5L39.1892 52.49C39.1917 51.83 39.6067 49.915 41.0892 48.19C42.4692 46.5725 44.8942 45 49.1892 45C53.4817 45 55.9067 46.575 57.2892 48.19C58.7717 49.915 59.1842 51.8325 59.1892 52.49L59.1692 52.495L59.1342 52.5H39.2442ZM49.1892 37.5C50.5153 37.5 51.7871 36.9732 52.7247 36.0355C53.6624 35.0979 54.1892 33.8261 54.1892 32.5C54.1892 31.1739 53.6624 29.9021 52.7247 28.9645C51.7871 28.0268 50.5153 27.5 49.1892 27.5C47.8631 27.5 46.5914 28.0268 45.6537 28.9645C44.716 29.9021 44.1892 31.1739 44.1892 32.5C44.1892 33.8261 44.716 35.0979 45.6537 36.0355C46.5914 36.9732 47.8631 37.5 49.1892 37.5ZM56.6892 32.5C56.6892 33.4849 56.4952 34.4602 56.1183 35.3701C55.7414 36.2801 55.1889 37.1069 54.4925 37.8033C53.7961 38.4997 52.9693 39.0522 52.0593 39.4291C51.1494 39.806 50.1741 40 49.1892 40C48.2043 40 47.229 39.806 46.3191 39.4291C45.4091 39.0522 44.5823 38.4997 43.8859 37.8033C43.1895 37.1069 42.637 36.2801 42.2601 35.3701C41.8832 34.4602 41.6892 33.4849 41.6892 32.5C41.6892 30.5109 42.4794 28.6032 43.8859 27.1967C45.2924 25.7902 47.2001 25 49.1892 25C51.1783 25 53.086 25.7902 54.4925 27.1967C55.899 28.6032 56.6892 30.5109 56.6892 32.5ZM39.0292 43.2C38.0286 42.8873 36.998 42.6803 35.9542 42.5825C35.3676 42.5253 34.7786 42.4978 34.1892 42.5C24.1892 42.5 21.6892 50 21.6892 52.5C21.6892 54.1667 22.5225 55 24.1892 55H34.7292C34.3588 54.2195 34.1739 53.3638 34.1892 52.5C34.1892 49.975 35.1317 47.395 36.9142 45.24C37.5217 44.505 38.2292 43.8175 39.0292 43.2ZM33.9892 45C32.5105 47.2236 31.7113 49.8297 31.6892 52.5H24.1892C24.1892 51.85 24.5992 49.925 26.0892 48.19C27.4517 46.6 29.8192 45.05 33.9892 45.0025V45ZM25.4392 33.75C25.4392 31.7609 26.2294 29.8532 27.6359 28.4467C29.0424 27.0402 30.9501 26.25 32.9392 26.25C34.9283 26.25 36.836 27.0402 38.2425 28.4467C39.649 29.8532 40.4392 31.7609 40.4392 33.75C40.4392 35.7391 39.649 37.6468 38.2425 39.0533C36.836 40.4598 34.9283 41.25 32.9392 41.25C30.9501 41.25 29.0424 40.4598 27.6359 39.0533C26.2294 37.6468 25.4392 35.7391 25.4392 33.75ZM32.9392 28.75C31.6131 28.75 30.3414 29.2768 29.4037 30.2145C28.466 31.1521 27.9392 32.4239 27.9392 33.75C27.9392 35.0761 28.466 36.3479 29.4037 37.2855C30.3414 38.2232 31.6131 38.75 32.9392 38.75C34.2653 38.75 35.5371 38.2232 36.4747 37.2855C37.4124 36.3479 37.9392 35.0761 37.9392 33.75C37.9392 32.4239 37.4124 31.1521 36.4747 30.2145C35.5371 29.2768 34.2653 28.75 32.9392 28.75Z" fill="#0C4B6E"/>
</g>
<defs>
<clipPath id="clip0_254_1501">
<rect width="40" height="40" fill="white" transform="translate(21.6892 20)"/>
</clipPath>
</defs>
</svg>
