<svg width="60" height="60" viewBox="0 0 60 60" fill="none" xmlns="http://www.w3.org/2000/svg">
<path d="M0 15C0 15 0 7.5 7.5 7.5H52.5C52.5 7.5 60 7.5 60 15V37.5C60 37.5 60 45 52.5 45H37.5C37.5 47.5 37.8125 49.375 38.4375 50.625H41.25C41.7473 50.625 42.2242 50.8225 42.5758 51.1742C42.9275 51.5258 43.125 52.0027 43.125 52.5C43.125 52.9973 42.9275 53.4742 42.5758 53.8258C42.2242 54.1775 41.7473 54.375 41.25 54.375H18.75C18.2527 54.375 17.7758 54.1775 17.4242 53.8258C17.0725 53.4742 16.875 52.9973 16.875 52.5C16.875 52.0027 17.0725 51.5258 17.4242 51.1742C17.7758 50.8225 18.2527 50.625 18.75 50.625H21.5625C22.1875 49.375 22.5 47.5 22.5 45H7.5C7.5 45 0 45 0 37.5V15ZM5.2425 11.7937C4.83082 12.0808 4.50225 12.4715 4.29 12.9262C3.9741 13.5881 3.79065 14.3053 3.75 15.0375V37.5C3.75 38.7188 4.0425 39.3825 4.29375 39.7575C4.55625 40.1475 4.93375 40.465 5.42625 40.71C6.0594 41.0131 6.74368 41.1949 7.44375 41.2463L7.5375 41.25H52.5C53.7188 41.25 54.3825 40.9575 54.7575 40.7062C55.1692 40.4192 55.4978 40.0285 55.71 39.5738C56.0131 38.9406 56.1949 38.2563 56.2463 37.5563L56.25 37.4625V15C56.25 13.7812 55.9575 13.1175 55.7062 12.7425C55.4192 12.3308 55.0285 12.0022 54.5738 11.79C53.9119 11.4741 53.1947 11.2907 52.4625 11.25H7.5C6.28125 11.25 5.6175 11.5425 5.2425 11.7937Z" fill="#0A9DE2"/>
</svg>
