<svg width="30" height="30" viewBox="0 0 30 30" fill="none" xmlns="http://www.w3.org/2000/svg">
<path d="M9.42375 28.1251C20.745 28.1251 26.9381 18.7445 26.9381 10.6238C26.9406 10.3601 26.9369 10.0963 26.9269 9.83258C28.1322 8.95929 29.1728 7.87874 30 6.64133C28.8733 7.13684 27.68 7.46409 26.4581 7.61258C27.7455 6.84328 28.7096 5.6326 29.1712 4.2057C27.9624 4.92331 26.6385 5.42635 25.2581 5.69258C24.3303 4.7045 23.1026 4.04992 21.7652 3.83025C20.4277 3.61057 19.0551 3.83806 17.86 4.47746C16.6649 5.11687 15.714 6.13251 15.1546 7.36707C14.5952 8.60163 14.4585 9.9862 14.7656 11.3063C12.3181 11.1842 9.92371 10.5487 7.7378 9.44101C5.5519 8.33336 3.62339 6.77835 2.0775 4.87695C1.29296 6.23285 1.05366 7.83643 1.40814 9.3623C1.76262 10.8882 2.68433 12.222 3.98625 13.0932C3.01014 13.0617 2.05536 12.7995 1.2 12.3282V12.4126C1.20239 13.8327 1.69466 15.2084 2.59373 16.3077C3.4928 17.4069 4.7436 18.1623 6.135 18.4463C5.60676 18.5919 5.06106 18.6645 4.51312 18.662C4.12672 18.666 3.74094 18.6302 3.36188 18.5551C3.75449 19.7781 4.52021 20.8476 5.55157 21.6133C6.58293 22.379 7.82816 22.8025 9.1125 22.8245C6.93019 24.5363 4.23609 25.4653 1.4625 25.4626C0.973685 25.4663 0.485149 25.4381 0 25.3782C2.81517 27.1735 6.08487 28.1265 9.42375 28.1251Z" fill="#E9E9E9"/>
</svg>
