<svg width="21" height="20" viewBox="0 0 21 20" fill="none" xmlns="http://www.w3.org/2000/svg">
<g clip-path="url(#clip0_289_168)">
<path d="M6.7825 18.75C14.33 18.75 18.4587 12.4963 18.4587 7.08251C18.4604 6.90668 18.4579 6.73084 18.4513 6.55501C19.2548 5.97282 19.9485 5.25245 20.5 4.42751C19.7489 4.75785 18.9533 4.97602 18.1388 5.07501C18.997 4.56215 19.6398 3.75503 19.9475 2.80376C19.1416 3.28216 18.259 3.61753 17.3387 3.79501C16.7202 3.13629 15.9018 2.69991 15.0101 2.55346C14.1185 2.40701 13.2034 2.55866 12.4067 2.98493C11.6099 3.4112 10.976 4.0883 10.6031 4.91134C10.2301 5.73438 10.139 6.65743 10.3438 7.53751C8.7121 7.45609 7.11581 7.0324 5.65854 6.29397C4.20126 5.55553 2.91559 4.51886 1.885 3.25126C1.36198 4.15519 1.20244 5.22424 1.43876 6.24149C1.67508 7.25874 2.28956 8.14798 3.1575 8.72876C2.50676 8.70774 1.87024 8.53297 1.3 8.21876V8.27501C1.30159 9.22174 1.62977 10.1389 2.22915 10.8718C2.82853 11.6046 3.6624 12.1082 4.59 12.2975C4.23784 12.3946 3.87404 12.4429 3.50875 12.4413C3.25115 12.4439 2.99396 12.4201 2.74125 12.37C3.00299 13.1854 3.51347 13.8983 4.20105 14.4088C4.88862 14.9193 5.71877 15.2016 6.575 15.2163C5.12013 16.3575 3.32406 16.9769 1.475 16.975C1.14912 16.9775 0.823433 16.9587 0.5 16.9188C2.37678 18.1156 4.55658 18.751 6.7825 18.75Z" fill="#868686"/>
</g>
<defs>
<clipPath id="clip0_289_168">
<rect width="20" height="20" fill="white" transform="translate(0.5)"/>
</clipPath>
</defs>
</svg>
