<svg width="40" height="40" viewBox="0 0 40 40" fill="none" xmlns="http://www.w3.org/2000/svg">
<path d="M5.36499 7.135C5.24877 7.01878 5.15658 6.88081 5.09368 6.72896C5.03079 6.57711 4.99841 6.41436 4.99841 6.25C4.99841 6.08564 5.03079 5.92289 5.09368 5.77104C5.15658 5.61919 5.24877 5.48122 5.36499 5.365C5.48121 5.24878 5.61918 5.15659 5.77103 5.09369C5.92288 5.03079 6.08563 4.99842 6.24999 4.99842C6.41435 4.99842 6.5771 5.03079 6.72895 5.09369C6.8808 5.15659 7.01877 5.24878 7.13499 5.365L20 18.2325L32.865 5.365C32.9812 5.24878 33.1192 5.15659 33.271 5.09369C33.4229 5.03079 33.5856 4.99842 33.75 4.99842C33.9144 4.99842 34.0771 5.03079 34.229 5.09369C34.3808 5.15659 34.5188 5.24878 34.635 5.365C34.7512 5.48122 34.8434 5.61919 34.9063 5.77104C34.9692 5.92289 35.0016 6.08564 35.0016 6.25C35.0016 6.41436 34.9692 6.57711 34.9063 6.72896C34.8434 6.88081 34.7512 7.01878 34.635 7.135L21.7675 20L34.635 32.865C34.7512 32.9812 34.8434 33.1192 34.9063 33.271C34.9692 33.4229 35.0016 33.5856 35.0016 33.75C35.0016 33.9144 34.9692 34.0771 34.9063 34.229C34.8434 34.3808 34.7512 34.5188 34.635 34.635C34.5188 34.7512 34.3808 34.8434 34.229 34.9063C34.0771 34.9692 33.9144 35.0016 33.75 35.0016C33.5856 35.0016 33.4229 34.9692 33.271 34.9063C33.1192 34.8434 32.9812 34.7512 32.865 34.635L20 21.7675L7.13499 34.635C7.01877 34.7512 6.8808 34.8434 6.72895 34.9063C6.5771 34.9692 6.41435 35.0016 6.24999 35.0016C6.08563 35.0016 5.92288 34.9692 5.77103 34.9063C5.61918 34.8434 5.48121 34.7512 5.36499 34.635C5.24877 34.5188 5.15658 34.3808 5.09368 34.229C5.03079 34.0771 4.99841 33.9144 4.99841 33.75C4.99841 33.5856 5.03079 33.4229 5.09368 33.271C5.15658 33.1192 5.24877 32.9812 5.36499 32.865L18.2325 20L5.36499 7.135Z" fill="#868686"/>
</svg>
