<svg width="34" height="34" viewBox="0 0 34 34" fill="none" xmlns="http://www.w3.org/2000/svg">
<g clip-path="url(#clip0_333_639)">
<path d="M33.7203 17C33.7203 21.3986 31.973 25.617 28.8628 28.7272C25.7525 31.8375 21.5341 33.5848 17.1356 33.5848C12.737 33.5848 8.5186 31.8375 5.40835 28.7272C2.2981 25.617 0.550781 21.3986 0.550781 17C0.550781 12.6014 2.2981 8.38304 5.40835 5.27279C8.5186 2.16254 12.737 0.415222 17.1356 0.415222C21.5341 0.415222 25.7525 2.16254 28.8628 5.27279C31.973 8.38304 33.7203 12.6014 33.7203 17ZM11.6501 10.0468C11.4555 9.8522 11.1915 9.74285 10.9163 9.74285C10.641 9.74285 10.377 9.8522 10.1824 10.0468C9.98775 10.2415 9.87841 10.5055 9.87841 10.7807C9.87841 11.056 9.98775 11.3199 10.1824 11.5146L15.6699 17L10.1824 22.4854C10.086 22.5818 10.0096 22.6962 9.95741 22.8221C9.90525 22.948 9.87841 23.083 9.87841 23.2193C9.87841 23.3556 9.90525 23.4905 9.95741 23.6165C10.0096 23.7424 10.086 23.8568 10.1824 23.9532C10.377 24.1478 10.641 24.2571 10.9163 24.2571C11.0526 24.2571 11.1875 24.2303 11.3134 24.1781C11.4394 24.126 11.5538 24.0495 11.6501 23.9532L17.1356 18.4657L22.621 23.9532C22.7173 24.0495 22.8318 24.126 22.9577 24.1781C23.0836 24.2303 23.2186 24.2571 23.3549 24.2571C23.4911 24.2571 23.6261 24.2303 23.752 24.1781C23.8779 24.126 23.9924 24.0495 24.0887 23.9532C24.1851 23.8568 24.2615 23.7424 24.3137 23.6165C24.3659 23.4905 24.3927 23.3556 24.3927 23.2193C24.3927 23.083 24.3659 22.948 24.3137 22.8221C24.2615 22.6962 24.1851 22.5818 24.0887 22.4854L18.6012 17L24.0887 11.5146C24.1851 11.4182 24.2615 11.3038 24.3137 11.1779C24.3659 11.052 24.3927 10.917 24.3927 10.7807C24.3927 10.6444 24.3659 10.5095 24.3137 10.3835C24.2615 10.2576 24.1851 10.1432 24.0887 10.0468C23.9924 9.95046 23.8779 9.87401 23.752 9.82185C23.6261 9.76969 23.4911 9.74285 23.3549 9.74285C23.2186 9.74285 23.0836 9.76969 22.9577 9.82185C22.8318 9.87401 22.7173 9.95046 22.621 10.0468L17.1356 15.5343L11.6501 10.0468Z" fill="#FF3B30"/>
</g>
<defs>
<clipPath id="clip0_333_639">
<rect width="33.1696" height="33.1696" fill="white" transform="translate(0.550781 0.415222)"/>
</clipPath>
</defs>
</svg>
